<svg width="105" height="60" viewBox="0 0 105 60" fill="none" xmlns="http://www.w3.org/2000/svg">
<g id="Arabic">
<rect id="Rectangle 31" width="104.762" height="60" rx="10" fill="#007C44"/>
<g id="Group 27">
<path id="Subtract" fill-rule="evenodd" clip-rule="evenodd" d="M52 44.7568C61.1444 44.7568 68.5574 37.3438 68.5574 28.1994C68.5574 25.0935 67.7022 22.1874 66.2145 19.7036C69.7912 23.317 72 28.2871 72 33.773C72 44.8187 63.0457 53.773 52 53.773C40.9543 53.773 32 44.8187 32 33.773C32 28.2871 34.2087 23.3171 37.7854 19.7037C36.2977 22.1875 35.4426 25.0936 35.4426 28.1994C35.4426 37.3438 42.8556 44.7568 52 44.7568Z" fill="white"/>
<path id="Vector" d="M52 22.27L58.18 26L56.54 18.97L62 14.24L54.81 13.62L52 7L49.19 13.62L42 14.24L47.45 18.97L45.82 26L52 22.27Z" fill="white"/>
</g>
</g>
</svg>
