<svg xmlns="http://www.w3.org/2000/svg" width="1440" height="810" viewBox="0 0 1440 810" fill="none">
			<path
				d="M-5.99989 -71.0001C45.3334 -41.0001 148.8 39.7999 152 123C156 227 112 291 178 353C244 415 270 411 278 529C286 647 228 695 298 791C368 887 396 929 384 1003C372 1077 414 1101 524 1087C634 1073 568 1037 690 925C812 813 904 873 1012 873C1120 873 1176 851 1140 679C1104 507 966 479 1044 367C1122 255 1132 123 1044 62.9999C956 2.99994 790 159 718 38.9999C660.4 -57.0001 580.667 -179.667 548 -229C502 -204.333 418 -142.2 450 -91.0001C490 -27.0001 564 94.9999 548 143C532 191 568 327 608 367C648 407 904 365 936 447C968 529 1140 639 1200 593C1260 547 1332 505 1384 541C1436 577 1422 593 1474 593C1526 593 1640 407 1562 353C1484 299 1392 419 1322 353C1252 287 1184 267 1244 153C1304 38.9999 1384 -35.0001 1360 -71.0001C1336 -107 616 -759 368 -605C120 -451 -87.9999 -183 -83.9999 -91.0001C-79.9999 1 -81.9999 105 -23.9999 177C34.0001 249 110 289 118 409C126 529 104 541 152 573C200 605 188 753 178 791C168 829 88.0001 943 64.0001 925C40.0001 907 12.0001 839 -23.9999 873"
				stroke="#D8B55B" stroke-opacity="0.05" stroke-width="40" />
		</svg>
