<svg width="53" height="42" viewBox="0 0 53 42" fill="none" xmlns="http://www.w3.org/2000/svg">
<g id="Group 85">
<path id="Vector" fill-rule="evenodd" clip-rule="evenodd" d="M41.3575 33.3965L46.0345 15.5963L39.1997 19.9491C37.8368 20.8181 36.1875 21.118 34.6059 20.7843C33.0244 20.4507 31.6368 19.5102 30.741 18.1648L26.2431 11.4071L21.7421 18.1679C20.8459 19.5128 19.458 20.4527 17.8765 20.7857C16.295 21.1187 14.646 20.8184 13.2835 19.9491L6.45479 15.5963L11.1317 33.3965H41.3606H41.3575ZM8.10947 12.9908C5.74166 11.4812 2.75026 13.6638 3.46338 16.3804L8.14343 34.1807C8.31668 34.8404 8.70356 35.4242 9.24363 35.8408C9.7837 36.2575 10.4466 36.4835 11.1287 36.4837H41.3575C42.0396 36.4835 42.7025 36.2575 43.2426 35.8408C43.7826 35.4242 44.1695 34.8404 44.3428 34.1807L49.0228 16.3804C49.7329 13.6638 46.7445 11.4843 44.3767 12.9908L37.5419 17.3436C36.8608 17.7784 36.0364 17.9288 35.2457 17.7626C34.455 17.5964 33.7609 17.1267 33.3126 16.4545L28.8116 9.69379C28.5296 9.27099 28.1477 8.92432 27.6997 8.68455C27.2516 8.44479 26.7513 8.31934 26.2431 8.31934C25.7349 8.31934 25.2346 8.44479 24.7866 8.68455C24.3385 8.92432 23.9566 9.27099 23.6746 9.69379L19.1736 16.4545C18.7258 17.1273 18.0319 17.5975 17.2412 17.7643C16.4504 17.9311 15.6258 17.7812 14.9443 17.3467L8.10947 12.9908Z" fill="#52C0FF"/>
<path id="Vector_2" d="M29.1577 2.9174C29.1585 3.69112 28.8519 4.43347 28.3054 4.98115C27.7589 5.52883 27.0172 5.83698 26.2434 5.8378C25.4697 5.83861 24.7274 5.53204 24.1797 4.98552C23.632 4.439 23.3239 3.69729 23.323 2.92357C23.3222 2.14985 23.6288 1.4075 24.1753 0.859819C24.7218 0.312138 25.4636 0.00399421 26.2373 0.00317546C27.011 0.00235671 27.7533 0.30893 28.301 0.855453C28.8487 1.40198 29.1569 2.14368 29.1577 2.9174ZM52.4838 8.75511C52.4842 9.52883 52.1772 10.271 51.6304 10.8184C51.0836 11.3658 50.3418 11.6736 49.568 11.674C48.7943 11.6744 48.0521 11.3674 47.5047 10.8206C46.9573 10.2738 46.6496 9.53191 46.6492 8.75819C46.6492 7.98448 46.9565 7.24245 47.5036 6.69534C48.0507 6.14824 48.7928 5.84088 49.5665 5.84088C50.3402 5.84088 51.0822 6.14824 51.6293 6.69534C52.1764 7.24245 52.4838 7.98139 52.4838 8.75511ZM5.83462 8.75511C5.83482 9.13821 5.75957 9.51761 5.61314 9.87163C5.46672 10.2257 5.25201 10.5474 4.98125 10.8184C4.7105 11.0895 4.38901 11.3045 4.03514 11.4513C3.68128 11.5981 3.30196 11.6738 2.91885 11.674C2.53575 11.6742 2.15635 11.5989 1.80233 11.4525C1.44831 11.3061 1.12659 11.0913 0.855552 10.8206C0.584511 10.5498 0.369454 10.2284 0.222658 9.87448C0.0758619 9.52062 0.000202702 9.1413 0 8.75819C0 7.98448 0.307359 7.24245 0.854461 6.69534C1.40156 6.14824 2.14359 5.84088 2.91731 5.84088C3.69103 5.84088 4.43306 6.14824 4.98016 6.69534C5.52726 7.24245 5.83462 7.98139 5.83462 8.75511Z" fill="#52C0FF"/>
<path id="Vector_3" fill-rule="evenodd" clip-rule="evenodd" d="M11.5798 40.1324C11.5798 39.723 11.7425 39.3304 12.0319 39.041C12.3214 38.7515 12.714 38.5889 13.1234 38.5889H40.0954C40.5048 38.5889 40.8974 38.7515 41.1868 39.041C41.4763 39.3304 41.6389 39.723 41.6389 40.1324C41.6389 40.5418 41.4763 40.9344 41.1868 41.2239C40.8974 41.5133 40.5048 41.676 40.0954 41.676H13.1234C12.714 41.676 12.3214 41.5133 12.0319 41.2239C11.7425 40.9344 11.5798 40.5418 11.5798 40.1324Z" fill="#52C0FF"/>
</g>
</svg>
