<svg width="63" height="50" viewBox="0 0 63 50" fill="none" xmlns="http://www.w3.org/2000/svg">
<g id="Group 85">
<path id="Vector" fill-rule="evenodd" clip-rule="evenodd" d="M48.8786 39.4696L54.4061 18.4324L46.3283 23.5768C44.7176 24.6038 42.7684 24.9582 40.8992 24.5639C39.0301 24.1696 37.3901 23.058 36.3314 21.4679L31.0155 13.4814L25.696 21.4716C24.6368 23.0611 22.9965 24.1719 21.1274 24.5655C19.2583 24.9591 17.3094 24.6041 15.6991 23.5768L7.62863 18.4324L13.1561 39.4696H48.8823H48.8786ZM9.58423 15.353C6.78582 13.5689 3.25042 16.1484 4.09323 19.3591L9.62436 40.3964C9.82912 41.1761 10.2864 41.866 10.9246 42.3584C11.5629 42.8508 12.3463 43.118 13.1525 43.1182H48.8786C49.6848 43.118 50.4682 42.8508 51.1064 42.3584C51.7447 41.866 52.202 41.1761 52.4067 40.3964L57.9379 19.3591C58.777 16.1484 55.2453 13.5726 52.4469 15.353L44.3691 20.4974C43.5641 21.0113 42.5898 21.189 41.6553 20.9926C40.7208 20.7961 39.9005 20.2411 39.3706 19.4467L34.0511 11.4564C33.7179 10.9567 33.2665 10.547 32.737 10.2637C32.2074 9.9803 31.6161 9.83203 31.0155 9.83203C30.415 9.83203 29.8237 9.9803 29.2941 10.2637C28.7646 10.547 28.3132 10.9567 27.98 11.4564L22.6605 19.4467C22.1311 20.2417 21.3111 20.7975 20.3766 20.9946C19.442 21.1918 18.4674 21.0146 17.662 20.5011L9.58423 15.353Z" fill="#FDB82D"/>
<path id="Vector_2" d="M34.4601 3.44785C34.4611 4.36228 34.0988 5.23963 33.4529 5.88691C32.8069 6.53419 31.9304 6.89837 31.0159 6.89934C30.1015 6.9003 29.2242 6.53798 28.5769 5.89207C27.9296 5.24616 27.5654 4.36957 27.5645 3.45515C27.5635 2.54073 27.9258 1.66337 28.5717 1.01609C29.2176 0.368813 30.0942 0.00463169 31.0086 0.00366404C31.9231 0.0026964 32.8004 0.365022 33.4477 1.01093C34.095 1.65684 34.4592 2.53343 34.4601 3.44785ZM62.0282 10.3472C62.0287 11.2616 61.6659 12.1388 61.0197 12.7857C60.3734 13.4326 59.4966 13.7964 58.5822 13.7968C57.6678 13.7973 56.7906 13.4345 56.1437 12.7883C55.4968 12.142 55.133 11.2652 55.1326 10.3508C55.1326 9.4364 55.4958 8.55943 56.1424 7.91283C56.789 7.26624 57.666 6.90299 58.5804 6.90299C59.4948 6.90299 60.3718 7.26624 61.0184 7.91283C61.665 8.55943 62.0282 9.43275 62.0282 10.3472ZM6.89567 10.3472C6.89591 10.7999 6.80697 11.2483 6.63392 11.6667C6.46087 12.0851 6.20711 12.4654 5.88712 12.7857C5.56712 13.106 5.18717 13.3602 4.76895 13.5337C4.35073 13.7072 3.90244 13.7966 3.44966 13.7968C2.99688 13.7971 2.5485 13.7081 2.13009 13.5351C1.71169 13.362 1.33147 13.1083 1.01114 12.7883C0.690807 12.4683 0.43664 12.0883 0.263149 11.6701C0.0896578 11.2519 0.000239564 10.8036 0 10.3508C0 9.4364 0.363254 8.55943 1.00985 7.91283C1.65644 7.26624 2.53341 6.90299 3.44784 6.90299C4.36226 6.90299 5.23923 7.26624 5.88583 7.91283C6.53242 8.55943 6.89567 9.43275 6.89567 10.3472Z" fill="#FDB82D"/>
<path id="Vector_3" fill-rule="evenodd" clip-rule="evenodd" d="M13.6855 47.4307C13.6855 46.9469 13.8777 46.4829 14.2199 46.1408C14.562 45.7986 15.026 45.6064 15.5098 45.6064H47.3868C47.8706 45.6064 48.3346 45.7986 48.6767 46.1408C49.0188 46.4829 49.211 46.9469 49.211 47.4307C49.211 47.9145 49.0188 48.3785 48.6767 48.7206C48.3346 49.0628 47.8706 49.2549 47.3868 49.2549H15.5098C15.026 49.2549 14.562 49.0628 14.2199 48.7206C13.8777 48.3785 13.6855 47.9145 13.6855 47.4307Z" fill="#FDB82D"/>
</g>
</svg>
