<svg width="41" height="34" viewBox="0 0 41 34" fill="none" xmlns="http://www.w3.org/2000/svg">
<g id="Group 85">
<path id="Vector" fill-rule="evenodd" clip-rule="evenodd" d="M32.2226 26.8782L35.8665 13.0097L30.5414 16.4011C29.4795 17.0781 28.1945 17.3118 26.9623 17.0518C25.7301 16.7919 24.649 16.0591 23.951 15.0109L20.4466 9.74585L16.9398 15.0133C16.2415 16.0611 15.1602 16.7934 13.9281 17.0529C12.6959 17.3124 11.4111 17.0784 10.3495 16.4011L5.02916 13.0097L8.67307 26.8782H32.225H32.2226ZM6.31836 10.9797C4.47355 9.80358 2.14289 11.5041 2.6985 13.6207L6.34482 27.4892C6.4798 28.0032 6.78123 28.458 7.20201 28.7826C7.62279 29.1072 8.13923 29.2834 8.67067 29.2835H32.2226C32.7541 29.2834 33.2705 29.1072 33.6913 28.7826C34.1121 28.458 34.4135 28.0032 34.5485 27.4892L38.1948 13.6207C38.748 11.5041 36.4197 9.80598 34.5749 10.9797L29.2498 14.3711C28.7191 14.7098 28.0768 14.827 27.4607 14.6975C26.8447 14.568 26.3039 14.2021 25.9546 13.6784L22.4478 8.41095C22.2281 8.08154 21.9306 7.81144 21.5815 7.62464C21.2324 7.43783 20.8426 7.34009 20.4466 7.34009C20.0507 7.34009 19.6609 7.43783 19.3118 7.62464C18.9627 7.81144 18.6651 8.08154 18.4455 8.41095L14.9387 13.6784C14.5897 14.2025 14.0492 14.5689 13.4331 14.6989C12.8169 14.8288 12.1744 14.712 11.6435 14.3735L6.31836 10.9797Z" fill="#FF4D4E"/>
<path id="Vector_2" d="M22.7173 3.13137C22.718 3.73419 22.4791 4.31257 22.0533 4.73928C21.6275 5.16599 21.0496 5.40607 20.4468 5.40671C19.844 5.40735 19.2656 5.16849 18.8389 4.74269C18.4122 4.31688 18.1721 3.739 18.1715 3.13618C18.1708 2.53336 18.4097 1.95498 18.8355 1.52827C19.2613 1.10156 19.8392 0.861479 20.442 0.860841C21.0448 0.860203 21.6232 1.09906 22.0499 1.52487C22.4766 1.95067 22.7167 2.52855 22.7173 3.13137ZM40.8912 7.67965C40.8915 8.28247 40.6523 8.86072 40.2263 9.28721C39.8003 9.71369 39.2223 9.95347 38.6195 9.95378C38.0166 9.9541 37.4384 9.71494 37.0119 9.28891C36.5854 8.86287 36.3456 8.28487 36.3453 7.68205C36.3453 7.07923 36.5848 6.5011 37.011 6.07484C37.4373 5.64859 38.0154 5.40912 38.6183 5.40912C39.2211 5.40912 39.7992 5.64859 40.2255 6.07484C40.6517 6.5011 40.8912 7.07683 40.8912 7.67965ZM4.54587 7.67965C4.54603 7.97813 4.48739 8.27373 4.37331 8.54955C4.25923 8.82538 4.09194 9.07603 3.88099 9.28721C3.67004 9.49838 3.41957 9.66594 3.14386 9.78031C2.86816 9.89468 2.57262 9.95363 2.27414 9.95378C1.97565 9.95394 1.68006 9.89531 1.40423 9.78123C1.12841 9.66715 0.877751 9.49986 0.666578 9.28891C0.455404 9.07796 0.287849 8.82748 0.173477 8.55178C0.0591055 8.27607 0.000157929 7.98054 0 7.68205C0 7.07923 0.239469 6.5011 0.665728 6.07484C1.09199 5.64859 1.67012 5.40912 2.27294 5.40912C2.87576 5.40912 3.45389 5.64859 3.88014 6.07484C4.3064 6.5011 4.54587 7.07683 4.54587 7.67965Z" fill="#FF4D4E"/>
<path id="Vector_3" fill-rule="evenodd" clip-rule="evenodd" d="M9.02197 32.1264C9.02197 31.8075 9.14868 31.5016 9.37421 31.2761C9.59974 31.0505 9.90563 30.9238 10.2246 30.9238H31.239C31.558 30.9238 31.8639 31.0505 32.0894 31.2761C32.3149 31.5016 32.4416 31.8075 32.4416 32.1264C32.4416 32.4454 32.3149 32.7513 32.0894 32.9768C31.8639 33.2023 31.558 33.3291 31.239 33.3291H10.2246C9.90563 33.3291 9.59974 33.2023 9.37421 32.9768C9.14868 32.7513 9.02197 32.4454 9.02197 32.1264Z" fill="#FF4D4E"/>
</g>
</svg>
