<svg width="160" height="122" viewBox="0 0 160 122" fill="none" xmlns="http://www.w3.org/2000/svg">
<g filter="url(#filter0_d_41_75)">
<rect x="10" y="6" width="140" height="102" rx="10" fill="white"/>
<rect x="30" y="74.3364" width="17.757" height="17.757" rx="5" fill="#52C0FF"/>
<rect x="50.5608" y="66.8599" width="17.757" height="25.2336" rx="5" fill="#55BC7D"/>
<rect x="71.1216" y="52.8411" width="17.757" height="39.2523" rx="5" fill="#FDB82D"/>
<rect x="91.6821" y="38.8224" width="17.757" height="53.271" rx="5" fill="#FF4D4E"/>
<rect x="112.243" y="22" width="17.757" height="70.0935" rx="5" fill="#D4B157"/>
<path d="M37.3338 27.18C37.4005 27.3667 37.4472 27.58 37.4738 27.82C37.5138 28.0467 37.5338 28.28 37.5338 28.52C37.5338 28.76 37.5138 29 37.4738 29.24C37.4472 29.4667 37.4072 29.6667 37.3538 29.84C37.1405 30.5867 36.7138 31.2133 36.0738 31.72C35.4338 32.2133 34.7005 32.5733 33.8738 32.8C33.0605 33.0267 32.2138 33.1067 31.3338 33.04C30.4672 32.9733 29.6938 32.7533 29.0138 32.38C28.5872 32.14 28.2205 31.8467 27.9138 31.5C27.6072 31.1533 27.3472 30.7667 27.1338 30.34C27.0538 30.1933 27.0005 30.0267 26.9738 29.84C26.9605 29.64 26.9805 29.4533 27.0338 29.28C27.0872 29.0933 27.1738 28.9333 27.2938 28.8C27.4138 28.6533 27.5805 28.5533 27.7938 28.5C27.9272 28.4733 28.0738 28.46 28.2338 28.46C28.4072 28.46 28.5738 28.4867 28.7338 28.54C28.8938 28.58 29.0405 28.6533 29.1738 28.76C29.3072 28.8533 29.4138 28.9867 29.4938 29.16C29.6405 29.44 29.8472 29.7 30.1138 29.94C30.3938 30.1667 30.6872 30.3533 30.9938 30.5C31.4338 30.6467 31.8738 30.7067 32.3138 30.68C32.7672 30.6533 33.1738 30.5533 33.5338 30.38C33.9072 30.2067 34.2072 29.9733 34.4338 29.68C34.6605 29.3733 34.7738 29.0267 34.7738 28.64C34.7738 28.32 34.7272 28.06 34.6338 27.86C34.5405 27.6467 34.4072 27.4733 34.2338 27.34C34.0738 27.1933 33.8738 27.0733 33.6338 26.98C33.4072 26.8867 33.1538 26.8067 32.8738 26.74C32.5538 26.6733 32.2272 26.6267 31.8938 26.6C31.5738 26.5733 31.2472 26.54 30.9138 26.5C30.5805 26.46 30.2538 26.4067 29.9338 26.34C29.6138 26.2733 29.3005 26.1733 28.9938 26.04C28.3805 25.7867 27.9138 25.4 27.5938 24.88C27.2738 24.36 27.0805 23.8 27.0138 23.2C26.9605 22.6 27.0338 22.0067 27.2338 21.42C27.4338 20.82 27.7538 20.3067 28.1938 19.88C28.6205 19.4933 29.1272 19.22 29.7138 19.06C30.3138 18.8867 30.9738 18.7867 31.6938 18.76C32.0938 18.7467 32.4938 18.76 32.8938 18.8C33.3072 18.84 33.7005 18.9067 34.0738 19C34.4605 19.0933 34.8138 19.2133 35.1338 19.36C35.4672 19.5067 35.7538 19.68 35.9938 19.88C36.1672 20.0133 36.3405 20.1933 36.5138 20.42C36.6872 20.6333 36.8205 20.8667 36.9138 21.12C37.0072 21.36 37.0338 21.5933 36.9938 21.82C36.9672 22.0467 36.8272 22.24 36.5738 22.4C36.3605 22.5333 36.1538 22.5933 35.9538 22.58C35.7672 22.5533 35.5872 22.4933 35.4138 22.4C35.2405 22.2933 35.0738 22.1733 34.9138 22.04C34.7538 21.9067 34.6072 21.7867 34.4738 21.68C34.1138 21.4133 33.6672 21.2333 33.1338 21.14C32.6005 21.0467 32.1005 21.0267 31.6338 21.08C31.3405 21.12 31.0672 21.1867 30.8138 21.28C30.5605 21.3733 30.3405 21.5 30.1538 21.66C29.9805 21.82 29.8405 22.02 29.7338 22.26C29.6405 22.4867 29.6072 22.7467 29.6338 23.04C29.6472 23.2533 29.7072 23.4333 29.8138 23.58C29.9338 23.7267 30.0738 23.8467 30.2338 23.94C30.4072 24.0333 30.5938 24.1067 30.7938 24.16C30.9938 24.2133 31.1938 24.2533 31.3938 24.28C31.9938 24.36 32.5938 24.42 33.1938 24.46C33.7938 24.5 34.3805 24.6333 34.9538 24.86C35.5405 25.0867 36.0405 25.3933 36.4538 25.78C36.8672 26.1667 37.1605 26.6333 37.3338 27.18ZM43.1218 28.4C43.4151 28.7067 43.6285 28.9333 43.7618 29.08C43.9085 29.2133 44.0085 29.3133 44.0618 29.38C44.1285 29.4467 44.1751 29.4867 44.2018 29.5C44.2285 29.5133 44.2751 29.5533 44.3418 29.62C44.4085 29.6867 44.5151 29.7933 44.6618 29.94C44.8085 30.0733 45.0285 30.2933 45.3218 30.6C45.5618 30.84 45.7551 31.12 45.9018 31.44C46.0618 31.7467 46.0485 32.08 45.8618 32.44C45.7551 32.6267 45.6351 32.76 45.5018 32.84C45.3685 32.9067 45.2218 32.9333 45.0618 32.92C44.9151 32.9067 44.7551 32.86 44.5818 32.78C44.4218 32.7 44.2618 32.6 44.1018 32.48C43.7951 32.2533 43.5018 31.9933 43.2218 31.7C42.9418 31.3933 42.7151 31.16 42.5418 31C42.4218 30.88 42.3485 30.8 42.3218 30.76C42.2951 30.7333 42.2685 30.7133 42.2418 30.7C42.2151 30.6733 42.1885 30.6467 42.1618 30.62C42.0685 30.5267 41.9685 30.4333 41.8618 30.34C41.7551 30.2467 41.6485 30.1467 41.5418 30.04V30.82C41.5418 30.9667 41.5485 31.0733 41.5618 31.14C41.5618 31.2733 41.5551 31.3733 41.5418 31.44C41.5018 31.5867 41.4818 31.7267 41.4818 31.86C41.4685 31.9267 41.4551 31.9933 41.4418 32.06C41.4285 32.1133 41.4085 32.1733 41.3818 32.24C41.3685 32.2667 41.3551 32.2867 41.3418 32.3C41.3418 32.3133 41.3418 32.3333 41.3418 32.36C41.3285 32.3867 41.3151 32.4067 41.3018 32.42C41.3018 32.4333 41.2951 32.4533 41.2818 32.48C41.2151 32.6133 41.1085 32.74 40.9618 32.86C40.7085 33.0067 40.3951 33.0467 40.0218 32.98C39.8218 32.94 39.6685 32.8667 39.5618 32.76C39.4418 32.68 39.3618 32.5667 39.3218 32.42C39.2951 32.3533 39.2685 32.2867 39.2418 32.22C39.2285 32.14 39.2085 32.0667 39.1818 32C39.1551 31.9333 39.1418 31.8733 39.1418 31.82C39.1418 31.7533 39.1418 31.7 39.1418 31.66V20.28C39.1418 20.2 39.1418 20.12 39.1418 20.04C39.1418 19.96 39.1485 19.88 39.1618 19.8C39.1751 19.72 39.1885 19.6467 39.2018 19.58C39.2285 19.5 39.2551 19.4267 39.2818 19.36C39.3351 19.2267 39.4018 19.12 39.4818 19.04C39.5485 18.9733 39.6151 18.9267 39.6818 18.9C39.7618 18.86 39.8351 18.8267 39.9018 18.8C39.9685 18.7867 40.0418 18.78 40.1218 18.78C40.2151 18.7667 40.3018 18.76 40.3818 18.76C40.5685 18.76 40.7551 18.8133 40.9418 18.92C41.1151 19.04 41.2418 19.1933 41.3218 19.38C41.4285 19.6333 41.4818 19.88 41.4818 20.12C41.4951 20.2533 41.5085 20.46 41.5218 20.74C41.5351 21.0067 41.5418 21.2067 41.5418 21.34V21.42C41.5551 21.86 41.5618 22.28 41.5618 22.68C41.5618 23.08 41.5618 23.5133 41.5618 23.98C41.5485 24.4467 41.5418 24.8933 41.5418 25.32C41.5418 25.7333 41.5418 26.1467 41.5418 26.56V26.78C41.6485 26.6733 41.7551 26.5733 41.8618 26.48C41.9685 26.3867 42.0685 26.2867 42.1618 26.18C42.2151 26.14 42.2685 26.0933 42.3218 26.04L42.5418 25.82C42.7151 25.6467 42.9418 25.4133 43.2218 25.12C43.5018 24.8133 43.7951 24.5467 44.1018 24.32C44.4351 24.08 44.7551 23.9333 45.0618 23.88C45.3818 23.8267 45.6485 23.9867 45.8618 24.36C46.0485 24.72 46.0618 25.06 45.9018 25.38C45.7551 25.6867 45.5618 25.9733 45.3218 26.24C45.0285 26.5467 44.8085 26.7733 44.6618 26.92C44.5151 27.0533 44.4085 27.1533 44.3418 27.22C44.2751 27.2733 44.2285 27.3067 44.2018 27.32C44.1751 27.3333 44.1285 27.3733 44.0618 27.44C44.0085 27.4933 43.9085 27.5933 43.7618 27.74C43.6285 27.8733 43.4151 28.0933 43.1218 28.4ZM50.1384 25.42C50.1384 25.7933 50.1384 26.2133 50.1384 26.68C50.1517 27.1467 50.1584 27.6333 50.1584 28.14C50.1584 28.6333 50.1584 29.1267 50.1584 29.62C50.1584 30.1 50.1517 30.5467 50.1384 30.96C50.125 31.16 50.105 31.38 50.0784 31.62C50.0517 31.8467 49.9984 32.06 49.9184 32.26C49.8384 32.46 49.7117 32.6267 49.5384 32.76C49.3784 32.88 49.1584 32.9333 48.8784 32.92C48.465 32.8933 48.165 32.7133 47.9784 32.38C47.805 32.0467 47.705 31.58 47.6784 30.98C47.6784 30.6733 47.6717 30.32 47.6584 29.92C47.6584 29.52 47.6517 29.1133 47.6384 28.7C47.6384 28.2867 47.6384 27.8867 47.6384 27.5C47.6384 27.1 47.6384 26.74 47.6384 26.42C47.6384 26.2333 47.6317 26.0067 47.6184 25.74C47.6184 25.4733 47.625 25.2 47.6384 24.92C47.6517 24.64 47.685 24.3733 47.7384 24.12C47.7917 23.8533 47.8784 23.6333 47.9984 23.46C48.0917 23.3533 48.225 23.2733 48.3984 23.22C48.5717 23.1533 48.7517 23.12 48.9384 23.12C49.1384 23.12 49.325 23.1533 49.4984 23.22C49.685 23.2867 49.8184 23.38 49.8984 23.5C49.9517 23.58 49.9917 23.6933 50.0184 23.84C50.045 23.9867 50.065 24.1533 50.0784 24.34C50.105 24.5133 50.1184 24.7 50.1184 24.9C50.1317 25.0867 50.1384 25.26 50.1384 25.42ZM49.3784 21.38C48.965 21.4867 48.6184 21.4467 48.3384 21.26C48.0717 21.06 47.905 20.7667 47.8384 20.38C47.785 20.1 47.805 19.8533 47.8984 19.64C47.9917 19.4267 48.1317 19.2667 48.3184 19.16C48.505 19.04 48.7184 18.9867 48.9584 19C49.1984 19.0133 49.4384 19.1067 49.6784 19.28C49.905 19.44 50.065 19.6267 50.1584 19.84C50.265 20.0533 50.2984 20.26 50.2584 20.46C50.2317 20.66 50.145 20.8467 49.9984 21.02C49.8517 21.18 49.645 21.3 49.3784 21.38ZM54.751 31.4C54.7377 31.4667 54.7243 31.5333 54.711 31.6C54.711 31.6533 54.711 31.7133 54.711 31.78L54.591 32.2C54.5643 32.2533 54.5443 32.2867 54.531 32.3L54.471 32.42C54.4043 32.5667 54.2843 32.6867 54.111 32.78C53.791 32.94 53.451 32.98 53.091 32.9C52.8643 32.8733 52.6843 32.8067 52.551 32.7C52.4177 32.6067 52.3243 32.4933 52.271 32.36C52.2177 32.2267 52.1777 32.0933 52.151 31.96C52.111 31.8267 52.091 31.7067 52.091 31.6V20.4C52.091 20.3067 52.091 20.2267 52.091 20.16C52.1043 20.08 52.1177 20.0067 52.131 19.94C52.1443 19.8467 52.1577 19.7667 52.171 19.7C52.1977 19.6333 52.2243 19.56 52.251 19.48C52.291 19.3467 52.3643 19.24 52.471 19.16C52.631 19.04 52.7843 18.9733 52.931 18.96C53.0243 18.9333 53.111 18.92 53.191 18.92C53.271 18.9067 53.3643 18.9 53.471 18.9C53.6577 18.9 53.871 18.9533 54.111 19.06C54.2977 19.1667 54.431 19.3133 54.511 19.5C54.6443 19.7667 54.711 20.0133 54.711 20.24C54.7243 20.3733 54.731 20.5733 54.731 20.84C54.7443 21.1067 54.751 21.3067 54.751 21.44V21.52C54.7777 21.9467 54.791 22.36 54.791 22.76C54.791 23.1467 54.7843 23.5733 54.771 24.04C54.771 24.4933 54.7643 24.9333 54.751 25.36C54.751 25.7733 54.751 26.1867 54.751 26.6V30.8C54.751 30.8533 54.751 30.9067 54.751 30.96C54.7643 31 54.771 31.0467 54.771 31.1C54.771 31.2333 54.7643 31.3333 54.751 31.4ZM59.9073 31.4C59.8939 31.4667 59.8806 31.5333 59.8673 31.6C59.8673 31.6533 59.8673 31.7133 59.8673 31.78L59.7473 32.2C59.7206 32.2533 59.7006 32.2867 59.6873 32.3L59.6273 32.42C59.5606 32.5667 59.4406 32.6867 59.2673 32.78C58.9473 32.94 58.6073 32.98 58.2473 32.9C58.0206 32.8733 57.8406 32.8067 57.7073 32.7C57.5739 32.6067 57.4806 32.4933 57.4273 32.36C57.3739 32.2267 57.3339 32.0933 57.3073 31.96C57.2673 31.8267 57.2473 31.7067 57.2473 31.6V20.4C57.2473 20.3067 57.2473 20.2267 57.2473 20.16C57.2606 20.08 57.2739 20.0067 57.2873 19.94C57.3006 19.8467 57.3139 19.7667 57.3273 19.7C57.3539 19.6333 57.3806 19.56 57.4073 19.48C57.4473 19.3467 57.5206 19.24 57.6273 19.16C57.7873 19.04 57.9406 18.9733 58.0873 18.96C58.1806 18.9333 58.2673 18.92 58.3473 18.92C58.4273 18.9067 58.5206 18.9 58.6273 18.9C58.8139 18.9 59.0273 18.9533 59.2673 19.06C59.4539 19.1667 59.5873 19.3133 59.6673 19.5C59.8006 19.7667 59.8673 20.0133 59.8673 20.24C59.8806 20.3733 59.8873 20.5733 59.8873 20.84C59.9006 21.1067 59.9073 21.3067 59.9073 21.44V21.52C59.9339 21.9467 59.9473 22.36 59.9473 22.76C59.9473 23.1467 59.9406 23.5733 59.9273 24.04C59.9273 24.4933 59.9206 24.9333 59.9073 25.36C59.9073 25.7733 59.9073 26.1867 59.9073 26.6V30.8C59.9073 30.8533 59.9073 30.9067 59.9073 30.96C59.9206 31 59.9273 31.0467 59.9273 31.1C59.9273 31.2333 59.9206 31.3333 59.9073 31.4ZM66.3241 29.48C66.0708 29.32 65.7841 29.1933 65.4641 29.1C65.1575 29.0067 64.8375 28.92 64.5041 28.84C64.1841 28.76 63.8708 28.6733 63.5641 28.58C63.2575 28.4733 62.9775 28.3267 62.7241 28.14C62.1775 27.7267 61.8575 27.22 61.7641 26.62C61.6841 26.0067 61.8175 25.3933 62.1641 24.78C62.3508 24.46 62.5975 24.2 62.9041 24C63.2108 23.7867 63.5441 23.6267 63.9041 23.52C64.2775 23.4 64.6575 23.3333 65.0441 23.32C65.4308 23.3067 65.7975 23.3267 66.1441 23.38C66.3708 23.42 66.6108 23.48 66.8641 23.56C67.1175 23.6267 67.3508 23.72 67.5641 23.84C67.7908 23.96 67.9908 24.1133 68.1641 24.3C68.3508 24.4733 68.4841 24.6933 68.5641 24.96C68.6175 25.1333 68.6241 25.3 68.5841 25.46C68.5575 25.62 68.4908 25.7533 68.3841 25.86C68.2908 25.9667 68.1641 26.0467 68.0041 26.1C67.8575 26.1533 67.6975 26.1667 67.5241 26.14C67.3241 26.1 67.1375 26.04 66.9641 25.96C66.7908 25.88 66.6175 25.7933 66.4441 25.7C66.2708 25.6067 66.0908 25.5267 65.9041 25.46C65.7308 25.3933 65.5441 25.36 65.3441 25.36C65.0375 25.3467 64.7841 25.4 64.5841 25.52C64.3841 25.64 64.2441 25.7867 64.1641 25.96C64.0975 26.1333 64.1041 26.32 64.1841 26.52C64.2775 26.72 64.4641 26.8933 64.7441 27.04C64.9975 27.1733 65.2775 27.28 65.5841 27.36C65.8908 27.44 66.1908 27.52 66.4841 27.6C66.7908 27.68 67.0841 27.7733 67.3641 27.88C67.6575 27.9867 67.9175 28.1333 68.1441 28.32C68.5841 28.68 68.8508 29.1 68.9441 29.58C69.0508 30.06 69.0241 30.5333 68.8641 31C68.7041 31.4667 68.4241 31.88 68.0241 32.24C67.6375 32.6 67.1775 32.84 66.6441 32.96C66.2575 33.04 65.8375 33.08 65.3841 33.08C64.9441 33.08 64.5041 33.0333 64.0641 32.94C63.6375 32.8467 63.2241 32.7 62.8241 32.5C62.4375 32.3 62.1108 32.0467 61.8441 31.74C61.6575 31.5267 61.5575 31.2867 61.5441 31.02C61.5441 30.74 61.5975 30.5 61.7041 30.3C61.8241 30.0867 61.9908 29.94 62.2041 29.86C62.4175 29.78 62.6575 29.8267 62.9241 30C63.1375 30.1467 63.3908 30.2933 63.6841 30.44C63.9775 30.5733 64.2708 30.68 64.5641 30.76C64.8575 30.84 65.1375 30.88 65.4041 30.88C65.6841 30.88 65.9241 30.82 66.1241 30.7C66.4175 30.5133 66.5708 30.3 66.5841 30.06C66.5975 29.8067 66.5108 29.6133 66.3241 29.48Z" fill="#D4B157"/>
</g>
<defs>
<filter id="filter0_d_41_75" x="0" y="0" width="160" height="122" filterUnits="userSpaceOnUse" color-interpolation-filters="sRGB">
<feFlood flood-opacity="0" result="BackgroundImageFix"/>
<feColorMatrix in="SourceAlpha" type="matrix" values="0 0 0 0 0 0 0 0 0 0 0 0 0 0 0 0 0 0 127 0" result="hardAlpha"/>
<feOffset dy="4"/>
<feGaussianBlur stdDeviation="5"/>
<feComposite in2="hardAlpha" operator="out"/>
<feColorMatrix type="matrix" values="0 0 0 0 0.320833 0 0 0 0 0.312946 0 0 0 0 0.241962 0 0 0 0.2 0"/>
<feBlend mode="normal" in2="BackgroundImageFix" result="effect1_dropShadow_41_75"/>
<feBlend mode="normal" in="SourceGraphic" in2="effect1_dropShadow_41_75" result="shape"/>
</filter>
</defs>
</svg>
